<svg id="Layer_1" data-name="Layer 1" xmlns="http://www.w3.org/2000/svg" viewBox="0 0 638 314.81"><defs><style>.cls-1{fill:#13017c;}.cls-1,.cls-2,.cls-3,.cls-4,.cls-5{fill-rule:evenodd;}.cls-2{fill:#fe4d11;}.cls-3{fill:#267821;}.cls-4{fill:#972106;}.cls-5{fill:#6f2801;}</style></defs><title>Fssai Logo Vector</title><path class="cls-1" d="M638.67,549.7l.17-.69-.17.69Zm-60.24,46.51c-20.76,0-7.22-45.89-3.62-56.2,3.85-11,14.4-33.8,23.47-40.56,10.43-7.78,21.94-7.73,34.42-5.91,2.77.39,14.73,2.94,17.43,4.22l-4.37,21.76-7.09,14.26a223.19,223.19,0,0,1-12.34,19.82l-13.79,17.75-12.84,14c-4.5,4.5-14.92,10.9-21.27,10.9Zm60.24-46.51c0,2.06-2.91,15.89-3.55,19.09-1.24,6.32-2.35,12.51-3.66,19-2.56,12.65.88,27.86,15.78,27.92,14.5,0,27.59-9.06,36.76-16.81,3.25-2.75,4.28-4,7.32-7,1-1,4.67-5.33,5.06-6.41a98.5,98.5,0,0,0,1.54-9.93l-7.46,7.82a1,1,0,0,0-.14.17,5.66,5.66,0,0,1-.51.47c-4.13,3.57-7.55,7.44-12.67,10.91-4.27,2.92-13.23,9.27-18.69,6.08-5.72-3.37-2.19-16.69-1.22-21.55.69-3.55,1.57-7.26,2.33-11,3.67-18.56,8-37,11.63-55.28l7-33.47c-3.57,0-7.36-.6-9.56-.66-14-.71-28.6-1.38-42.47.87a88.86,88.86,0,0,0-21.35,6.05,81.41,81.41,0,0,0-15.39,8.84l-5.68,4.5a115.62,115.62,0,0,0-17.5,16.92c-11.6,14.41-18.62,27.73-22.9,45.93-3.18,13.58-3.91,33,5.26,45.23,10.38,13.9,26.36,8.59,38.88,1.14a93.71,93.71,0,0,0,9.77-7.14c.78-.55,1.13-1,1.88-1.62a129.43,129.43,0,0,0,10.63-10.06l6.52-7.19c6.16-7.28,16.27-21.56,21-30.6.57-1.08.51-1.49,1.4-2.12Z" transform="translate(-181 -342.6)"/><path class="cls-1" d="M311.44,450.27l-21.85-.2V437.2L314,437a52.42,52.42,0,0,1,1.3-7.44C319,410.72,318.6,399,330.9,383.73c9-11.08,24.34-14.81,38.32-10.68a38.27,38.27,0,0,1,6.35,2.57l5.95,3,18.88-18.72c-1.78-.14-4.88-.75-6.53-.95-21.91-1.14-41.47.44-60.91,12.19-21.72,13.15-37.37,37.09-42.74,61.77-1.16,5.34-.46,4.14-3,4l-30-.05c-1.67.08-1.56.23-1.58,1.92l.05,11.5h31.21c0,1.82-2.09,12.26-2.54,15-.82,4.92-1.74,9.79-2.68,14.83-3.68,19.42-6.85,40.56-10.62,59.8-1,5-1.8,9.88-2.64,14.89s-1.81,10-2.73,15.1c-4.77,26.55-7.81,63.58-38.12,67.33-12.31,1.54-20.33-1.67-30.52-4l-3.78,4.51c-1.29,1.59-2.7,2.91-4,4.59l-6.83,7.84c-.86,1.08-1.18,1.08-1.3,2.59,15.81,0,31.72,1.95,46.86-3.57,1.25-.45,2.39-.88,3.69-1.39,7.73-3.07,13.24-6.91,19.56-12l5.24-5c1.56-2,4.53-5,7.28-8.65,1.58-2.07,2.82-4.11,4.28-6.26s2.49-4.11,3.78-6.41c11.39-20.38,18.58-48.09,23.1-70.86,1.13-5.63,2.43-11.88,3.4-17.65,2.89-17.42,6.88-35.65,9.83-52.94l3.28-17.77Z" transform="translate(-181 -342.6)"/><path class="cls-2" d="M311.44,450.27H813.58L819,436.9l-92.08-.09-4.48.2c-3.92-.5-203.25-.11-204.56-.11H326.41c-3.62,0-9.82.3-12.43.14l-24.39.16v12.87l21.85.2Z" transform="translate(-181 -342.6)"/><path class="cls-2" d="M730.11,490.11c4.09,0,8.52-.29,11.7,2.94,5.42,5.45,2,16,.8,22.32-.84,4.54-1.59,8.6-2.5,13.11l-7.43,39.08c-1.43,7.15-7,34.55-7,39.8,0,7.46.52,15.35,5.79,20.66s9.16,6.75,17.14,6.75c10.87,0,23.68-6.87,32.13-12.49l18.69-14.76c.45-1.06.17-9.16.17-11-1.49.4-2.9,2.74-4.74,4.21-5.89,4.67-7.91,7.24-15.72,12-4.5,2.73-14.71,7.71-19.21,2.12-4.17-5.19-2.12-14.78-.93-20.68l26.89-132.73c-1.57.75-4.32,1.39-6.24,2-10.2,3.41-21.56,6.63-31.71,10l-31.7,10.06c-3.35,1-5.39,1.23-5.55,3-.88,9.51-1.1,8.54,2.17,7.59,1-.3,2.36-.6,3.54-.93,2.61-.75,11.33-3.15,13.74-3.15Z" transform="translate(-181 -342.6)"/><path class="cls-1" d="M446.52,516.24c0,10.74,3.33,17.93,9.65,24.14l18.12,20.43c3,3.68,5.74,5.52,8.46,11,6.27,12.5,3.21,26-11.81,29.4-3.53.78-5.91.53-9.45.45-5-.13-11.84-2.52-16.38-4.33-7.07-2.83-8.09-4.09-13.87-7.14-1.13,1.68-8.53,8.85-10.13,10.59l-6.13,6.6c2.71,1.44,12.82,4.43,15.7,5,20.41,4.31,40.2,3.16,57.4-8.72,4-2.76,9.3-8,11.77-12.14a35.24,35.24,0,0,0,3.84-7.94,32.41,32.41,0,0,0-5.51-30.75l-20.93-25.58c-2.52-3.19-6.31-7.12-8-10.51-2.25-4.52-4-8.49-3.29-14.86C467,491.75,478.56,486,487.3,486c4,0,7.2-.11,11.12,1.31,5.76,2.07,11.83,6.65,11.83,13.66,0,5.2-.39,4-.65,7h8c.71-1.45,2.78-11,3.27-13.29l3.1-13.79c-3-.69-5.09-2.25-11.89-3.42-13.6-2.32-26.17-1.27-38.78,4.38-4.52,2-10.43,5.47-13.92,9l-2.88,2.86c-5.56,6.36-10,13-10,22.55Z" transform="translate(-181 -342.6)"/><path class="cls-1" d="M334.05,517.2a33.68,33.68,0,0,0,6.51,19.63l15.3,17.2a15.06,15.06,0,0,0,1.54,1.64l7.81,8.77c3.38,3.32,8.36,11.51,8.36,18.07,0,6.27-1.7,11.49-6.2,14.84-11.89,8.95-29.2,3-40.87-2.84-1.33-.65-2.35-1.28-3.7-2-1.19-.64-2.47-1.71-3.73-2L306.78,603c-1.65,2.15-3.57,3.25-3.95,4.66a25.8,25.8,0,0,1,3.55,1.22c1.29.48,2.61.89,3.81,1.28,20.6,6.94,47.9,6.58,65.33-6.27,4.57-3.39,8.28-6.67,11.48-11.45,8.6-12.74,8-27.77-1.34-39.9L359,520a13.94,13.94,0,0,1-2.54-4.16c-1.86-4.16-2.95-6.55-2.95-11.71,0-23.18,44.61-24.72,44.61-1.58,0,2.31-.6,3.49-.63,5.4,9.22,0,8,.73,8.72-2.73.28-1.28.51-2.36.77-3.38.76-3.08,4.18-19.29,4.83-20.64-6.48-3.43-16.89-4.78-25.79-4.78-14.27,0-30.82,6.45-38.17,13.78-1.11,1.08-1.94,1.55-3,2.69-.65.7-.7.9-1.27,1.6-4.44,5.24-7.59,10-8.83,17.29a41.8,41.8,0,0,0-.64,5.42Z" transform="translate(-181 -342.6)"/><path class="cls-3" d="M747.31,425.44c-1.73,2.56-7.14,5.38-10.62,6.57a53.2,53.2,0,0,1-10.43,2.33c-1.57.1-2.84.33-4.13.33a4.74,4.74,0,0,0,.31,2.34l4.48-.2c.78-.35,10.71-.65,18.66-6.41,5-3.64,1.18-2.45,7-3.24,1.86-.25,2.79-.23,4.52-.58,26.47-5.38,36.88-39.86,37.08-64.25l.55-9.63c.38-2.61.1-7.27.1-10.1h-.65c-.34,4.21-8.19,16.08-10.82,19.75-16.41,18.35-41.82,36.36-36,63.09Z" transform="translate(-181 -342.6)"/><path class="cls-4" d="M745.4,416.82Z" transform="translate(-181 -342.6)"/><path class="cls-5" d="M729.83,404.53a11.74,11.74,0,1,1-11.74,11.73,11.75,11.75,0,0,1,11.74-11.73Z" transform="translate(-181 -342.6)"/><path class="cls-3" d="M775.58,644.59l-6.41,12.81H181V655c30.61,2.11,50.77-2,63.82-10.38l530.76,0Z" transform="translate(-181 -342.6)"/></svg>